{
  "source": "C:\\Users\\Peter\\Desktop\\stuff\\MIUN\\quantitative_research\\video_compression\\videos\\UVG\\HoneyBee_1920x1080_120fps_420_8bit_YUV.y4m",
  "output": "C:\\Users\\Peter\\Desktop\\stuff\\MIUN\\quantitative_research\\video_compression\\compressed_videos\\UVG\\hevc\\1.5\\HoneyBee_1920x1080_120fps_420_8bit_YUV_hevc.mp4",
  "codec": "hevc",
  "ok": "[yuv4mpegpipe @ 0000018e36c26740] Stream #0: not enough frames to estimate rate; consider increasing probesize\nInput #0, yuv4mpegpipe, from 'C:\\Users\\Peter\\Desktop\\stuff\\MIUN\\quantitative_research\\video_compression\\videos\\UVG\\HoneyBee_1920x1080_120fps_420_8bit_YUV.y4m':\n  Duration: 00:00:05.00, start: 0.000000, bitrate: 2985989 kb/s\n  Stream #0:0: Video: rawvideo (I420 / 0x30323449), yuv420p(progressive), 1920x1080, 120 fps, 120 tbr, 120 tbn\n[out#0/mp4 @ 0000018e36c29ac0] Codec AVOption b:a (set bitrate (in bits/s)) has not been used for any stream. The most likely reason is either wrong type (e.g. a video option with no video streams) or that it is a private option of some decoder which was not actually used for any stream.\nStream mapping:\n  Stream #0:0 -> #0:0 (rawvideo (native) -> hevc (libx265))\nPress [q] to stop, [?] for help\n[libx265 @ 0000018e36c2cb00] Unknown option: \"aq-mode.\nx265 [info]: HEVC encoder version 4.1+190-8f11c33ac\nx265 [info]: build info [Windows][GCC 15.1.0][64 bit] 10bit\nx265 [info]: using cpu capabilities: MMX2 SSE2Fast LZCNT SSSE3 SSE4.2 AVX FMA3 BMI2 AVX2\nx265 [info]: Main 10 profile, Level-5 (Main tier)\nx265 [info]: Thread pool created using 12 threads\nx265 [info]: Slices                              : 1\nx265 [info]: frame threads / pool features       : 3 / wpp(17 rows)\nx265 [info]: Coding QT: max CU size, min CU size : 64 / 8\nx265 [info]: Residual QT: max TU size, max depth : 32 / 1 inter / 1 intra\nx265 [info]: ME / range / subpel / merge         : star / 57 / 3 / 3\nx265 [info]: Keyframe min / max / scenecut / bias  : 25 / 250 / 40 / 5.00 \nx265 [info]: Lookahead / bframes / badapt        : 25 / 4 / 2\nx265 [info]: b-pyramid / weightp / weightb       : 1 / 1 / 0\nx265 [info]: References / ref-limit  cu / depth  : 4 / on / on\nx265 [info]: AQ: mode / str / qg-size / cu-tree  : 2 / 1.0 / 32 / 1\nx265 [info]: Rate Control / qCompress            : ABR-1500 kbps / 0.60\nx265 [info]: VBV/HRD buffer / max-rate / init    : 1500 / 1500 / 0.750\nx265 [info]: tools: rect limit-modes rd=4 psy-rd=2.00 rdoq=2 psy-rdoq=1.00\nx265 [info]: tools: rskip mode=1 signhide tmvp strong-intra-smoothing lslices=4\nx265 [info]: tools: deblock sao dhdr10-info\nOutput #0, mp4, to 'C:\\Users\\Peter\\Desktop\\stuff\\MIUN\\quantitative_research\\video_compression\\compressed_videos\\UVG\\hevc\\1.5\\HoneyBee_1920x1080_120fps_420_8bit_YUV_hevc.mp4':\n  Metadata:\n    encoder         : Lavf62.3.100\n  Stream #0:0: Video: hevc (hev1 / 0x31766568), yuv420p10le(tv, progressive), 1920x1080, q=2-31, 1500 kb/s, 120 fps, 15360 tbn\n    Metadata:\n      encoder         : Lavc62.11.100 libx265\n    Side data:\n      cpb: bitrate max/min/avg: 1500000/0/1500000 buffer size: 1500000 vbv_delay: N/A\nframe=    0 fps=0.0 q=0.0 size=       0KiB time=N/A bitrate=N/A speed=N/A elapsed=0:00:00.50    \nframe=    0 fps=0.0 q=0.0 size=       0KiB time=N/A bitrate=N/A speed=N/A elapsed=0:00:01.02    \nframe=    0 fps=0.0 q=0.0 size=       0KiB time=N/A bitrate=N/A speed=N/A elapsed=0:00:01.55    \nframe=    2 fps=1.0 q=51.0 size=       0KiB time=00:00:00.00 bitrate=N/A speed=   0x elapsed=0:00:02.07    \nframe=    5 fps=1.9 q=51.0 size=       0KiB time=00:00:00.02 bitrate=  14.1kbits/s speed=0.00966x elapsed=0:00:02.58    \nframe=    7 fps=2.3 q=44.6 size=       0KiB time=00:00:00.04 bitrate=   8.4kbits/s speed=0.0134x elapsed=0:00:03.10    \nframe=    9 fps=2.5 q=48.9 size=       0KiB time=00:00:00.05 bitrate=   6.0kbits/s speed=0.0161x elapsed=0:00:03.61    \nframe=   12 fps=2.9 q=42.6 size=       0KiB time=00:00:00.08 bitrate=   4.2kbits/s speed=0.0201x elapsed=0:00:04.13    \nframe=   14 fps=3.0 q=49.0 size=       0KiB time=00:00:00.10 bitrate=   3.5kbits/s speed=0.0215x elapsed=0:00:04.64    \nframe=   16 fps=3.1 q=50.0 size=       0KiB time=00:00:00.11 bitrate=   3.0kbits/s speed=0.0226x elapsed=0:00:05.16    \nframe=   18 fps=3.2 q=48.9 size=       0KiB time=00:00:00.13 bitrate=   2.6kbits/s speed=0.0235x elapsed=0:00:05.67    \nframe=   21 fps=3.4 q=47.0 size=       0KiB time=00:00:00.15 bitrate=   2.2kbits/s speed=0.0255x elapsed=0:00:06.19    \nframe=   24 fps=3.6 q=46.9 size=       0KiB time=00:00:00.18 bitrate=   1.9kbits/s speed=0.0272x elapsed=0:00:06.73    \nframe=   26 fps=3.6 q=45.8 size=       0KiB time=00:00:00.20 bitrate=   1.8kbits/s speed=0.0276x elapsed=0:00:07.25    \nframe=   29 fps=3.7 q=46.0 size=       0KiB time=00:00:00.22 bitrate=   1.6kbits/s speed=0.0289x elapsed=0:00:07.77    \nframe=   32 fps=3.9 q=37.4 size=       0KiB time=00:00:00.25 bitrate=   1.4kbits/s speed=0.0302x elapsed=0:00:08.28    \nframe=   35 fps=4.0 q=43.7 size=       0KiB time=00:00:00.27 bitrate=   1.3kbits/s speed=0.0312x elapsed=0:00:08.80    \nframe=   37 fps=4.0 q=36.8 size=       0KiB time=00:00:00.29 bitrate=   1.2kbits/s speed=0.0313x elapsed=0:00:09.31    \nframe=   39 fps=4.0 q=43.9 size=       0KiB time=00:00:00.30 bitrate=   1.1kbits/s speed=0.0313x elapsed=0:00:09.83    \nframe=   42 fps=4.1 q=37.1 size=       0KiB time=00:00:00.33 bitrate=   1.1kbits/s speed=0.0322x elapsed=0:00:10.35    \nframe=   44 fps=4.0 q=41.9 size=       0KiB time=00:00:00.35 bitrate=   1.0kbits/s speed=0.0322x elapsed=0:00:10.86    \nframe=   46 fps=4.0 q=40.7 size=       0KiB time=00:00:00.36 bitrate=   1.0kbits/s speed=0.0322x elapsed=0:00:11.38    \nframe=   48 fps=4.0 q=40.8 size=       0KiB time=00:00:00.38 bitrate=   0.9kbits/s speed=0.0322x elapsed=0:00:11.90    \nframe=   50 fps=4.0 q=40.8 size=       0KiB time=00:00:00.40 bitrate=   0.9kbits/s speed=0.0321x elapsed=0:00:12.44    \nframe=   53 fps=4.1 q=40.9 size=       0KiB time=00:00:00.42 bitrate=   0.8kbits/s speed=0.0328x elapsed=0:00:12.97    \nframe=   55 fps=4.1 q=39.6 size=       0KiB time=00:00:00.44 bitrate=   0.8kbits/s speed=0.0327x elapsed=0:00:13.48    \nframe=   56 fps=4.0 q=39.5 size=       0KiB time=00:00:00.45 bitrate=   0.8kbits/s speed=0.0321x elapsed=0:00:14.00    \nframe=   59 fps=4.1 q=39.7 size=       0KiB time=00:00:00.47 bitrate=   0.7kbits/s speed=0.0327x elapsed=0:00:14.51    \nframe=   61 fps=4.1 q=39.8 size=       0KiB time=00:00:00.49 bitrate=   0.7kbits/s speed=0.0327x elapsed=0:00:15.04    \nframe=   64 fps=4.1 q=39.5 size=       0KiB time=00:00:00.51 bitrate=   0.7kbits/s speed=0.0332x elapsed=0:00:15.54    \nframe=   65 fps=4.0 q=38.7 size=       0KiB time=00:00:00.52 bitrate=   0.7kbits/s speed=0.0327x elapsed=0:00:16.06    \nframe=   69 fps=4.2 q=38.7 size=       0KiB time=00:00:00.55 bitrate=   0.6kbits/s speed=0.0337x elapsed=0:00:16.58    \nframe=   73 fps=4.3 q=37.7 size=       0KiB time=00:00:00.59 bitrate=   0.6kbits/s speed=0.0346x elapsed=0:00:17.10    \nframe=   75 fps=4.3 q=38.7 size=       0KiB time=00:00:00.60 bitrate=   0.6kbits/s speed=0.0345x elapsed=0:00:17.61    \nframe=   78 fps=4.3 q=37.8 size=       0KiB time=00:00:00.63 bitrate=   0.6kbits/s speed=0.0349x elapsed=0:00:18.14    \nframe=   80 fps=4.3 q=38.8 size=       0KiB time=00:00:00.65 bitrate=   0.5kbits/s speed=0.0348x elapsed=0:00:18.65    \nframe=   83 fps=4.3 q=37.6 size=       0KiB time=00:00:00.67 bitrate=   0.5kbits/s speed=0.0352x elapsed=0:00:19.16    \nframe=   85 fps=4.3 q=38.7 size=       0KiB time=00:00:00.69 bitrate=   0.5kbits/s speed=0.0352x elapsed=0:00:19.67    \nframe=   88 fps=4.4 q=36.7 size=       0KiB time=00:00:00.71 bitrate=   0.5kbits/s speed=0.0355x elapsed=0:00:20.20    \nframe=   90 fps=4.3 q=37.9 size=       0KiB time=00:00:00.73 bitrate=   0.5kbits/s speed=0.0354x elapsed=0:00:20.70    \nframe=   93 fps=4.4 q=36.8 size=       0KiB time=00:00:00.75 bitrate=   0.5kbits/s speed=0.0357x elapsed=0:00:21.22    \nframe=   96 fps=4.4 q=36.8 size=       0KiB time=00:00:00.78 bitrate=   0.4kbits/s speed=0.036x elapsed=0:00:21.75    \nframe=   99 fps=4.4 q=36.8 size=       0KiB time=00:00:00.80 bitrate=   0.4kbits/s speed=0.0363x elapsed=0:00:22.27    \nframe=  103 fps=4.5 q=35.8 size=       0KiB time=00:00:00.84 bitrate=   0.4kbits/s speed=0.0369x elapsed=0:00:22.79    \nframe=  106 fps=4.5 q=36.7 size=       0KiB time=00:00:00.86 bitrate=   0.4kbits/s speed=0.0372x elapsed=0:00:23.30    \nframe=  109 fps=4.6 q=36.7 size=       0KiB time=00:00:00.89 bitrate=   0.4kbits/s speed=0.0374x elapsed=0:00:23.82    \nframe=  111 fps=4.6 q=36.9 size=       0KiB time=00:00:00.90 bitrate=   0.4kbits/s speed=0.0373x elapsed=0:00:24.34    \nframe=  115 fps=4.6 q=35.9 size=       0KiB time=00:00:00.94 bitrate=   0.4kbits/s speed=0.0379x elapsed=0:00:24.86    \nframe=  118 fps=4.6 q=35.9 size=       0KiB time=00:00:00.96 bitrate=   0.4kbits/s speed=0.0381x elapsed=0:00:25.38    \nframe=  121 fps=4.7 q=35.9 size=       0KiB time=00:00:00.99 bitrate=   0.4kbits/s speed=0.0383x elapsed=0:00:25.89    \nframe=  124 fps=4.7 q=35.8 size=       0KiB time=00:00:01.01 bitrate=   0.3kbits/s speed=0.0385x elapsed=0:00:26.41    \nframe=  127 fps=4.7 q=34.1 size=       0KiB time=00:00:01.04 bitrate=   0.3kbits/s speed=0.0387x elapsed=0:00:26.94    \nframe=  129 fps=4.7 q=35.8 size=       0KiB time=00:00:01.05 bitrate=   0.3kbits/s speed=0.0385x elapsed=0:00:27.46    \nframe=  131 fps=4.7 q=36.0 size=       0KiB time=00:00:01.07 bitrate=   0.3kbits/s speed=0.0384x elapsed=0:00:27.98    \nframe=  133 fps=4.7 q=35.7 size=       0KiB time=00:00:01.09 bitrate=   0.3kbits/s speed=0.0383x elapsed=0:00:28.50    \nframe=  136 fps=4.7 q=36.0 size=       0KiB time=00:00:01.11 bitrate=   0.3kbits/s speed=0.0385x elapsed=0:00:29.03    \nframe=  139 fps=4.7 q=36.0 size=       0KiB time=00:00:01.14 bitrate=   0.3kbits/s speed=0.0386x elapsed=0:00:29.55    \nframe=  142 fps=4.7 q=30.4 size=       0KiB time=00:00:01.16 bitrate=   0.3kbits/s speed=0.0388x elapsed=0:00:30.07    \nframe=  146 fps=4.8 q=35.0 size=       0KiB time=00:00:01.20 bitrate=   0.3kbits/s speed=0.0392x elapsed=0:00:30.58    \nframe=  149 fps=4.8 q=35.0 size=       0KiB time=00:00:01.22 bitrate=   0.3kbits/s speed=0.0394x elapsed=0:00:31.10    \nframe=  152 fps=4.8 q=30.3 size=       0KiB time=00:00:01.25 bitrate=   0.3kbits/s speed=0.0395x elapsed=0:00:31.61    \nframe=  155 fps=4.8 q=34.0 size=       0KiB time=00:00:01.27 bitrate=   0.3kbits/s speed=0.0397x elapsed=0:00:32.13    \nframe=  157 fps=4.8 q=29.0 size=       0KiB time=00:00:01.29 bitrate=   0.3kbits/s speed=0.0396x elapsed=0:00:32.65    \nframe=  160 fps=4.8 q=33.8 size=       0KiB time=00:00:01.31 bitrate=   0.3kbits/s speed=0.0397x elapsed=0:00:33.16    \nframe=  162 fps=4.8 q=29.8 size=       0KiB time=00:00:01.33 bitrate=   0.3kbits/s speed=0.0396x elapsed=0:00:33.68    \nframe=  164 fps=4.8 q=33.8 size=       0KiB time=00:00:01.35 bitrate=   0.3kbits/s speed=0.0395x elapsed=0:00:34.18    \nframe=  168 fps=4.8 q=33.8 size=       0KiB time=00:00:01.38 bitrate=   0.3kbits/s speed=0.0398x elapsed=0:00:34.71    \nframe=  170 fps=4.8 q=32.7 size=       0KiB time=00:00:01.40 bitrate=   0.3kbits/s speed=0.0397x elapsed=0:00:35.23    \nframe=  174 fps=4.9 q=33.7 size=       0KiB time=00:00:01.43 bitrate=   0.2kbits/s speed=0.0401x elapsed=0:00:35.73    \nframe=  175 fps=4.8 q=32.7 size=       0KiB time=00:00:01.44 bitrate=   0.2kbits/s speed=0.0398x elapsed=0:00:36.26    \nframe=  179 fps=4.9 q=33.9 size=       0KiB time=00:00:01.47 bitrate=   0.2kbits/s speed=0.0401x elapsed=0:00:36.76    \nframe=  182 fps=4.9 q=28.0 size=       0KiB time=00:00:01.50 bitrate=   0.2kbits/s speed=0.0402x elapsed=0:00:37.29    \nframe=  184 fps=4.9 q=32.9 size=       0KiB time=00:00:01.51 bitrate=   0.2kbits/s speed=0.0401x elapsed=0:00:37.81    \nframe=  188 fps=4.9 q=32.7 size=       0KiB time=00:00:01.55 bitrate=   0.2kbits/s speed=0.0404x elapsed=0:00:38.31    \nframe=  189 fps=4.9 q=32.9 size=       0KiB time=00:00:01.55 bitrate=   0.2kbits/s speed=0.0401x elapsed=0:00:38.84    \nframe=  191 fps=4.9 q=32.6 size=       0KiB time=00:00:01.57 bitrate=   0.2kbits/s speed=0.04x elapsed=0:00:39.34    \nframe=  194 fps=4.9 q=32.6 size=       0KiB time=00:00:01.60 bitrate=   0.2kbits/s speed=0.0401x elapsed=0:00:39.86    \nframe=  197 fps=4.9 q=28.0 size=       0KiB time=00:00:01.62 bitrate=   0.2kbits/s speed=0.0402x elapsed=0:00:40.39    \nframe=  200 fps=4.9 q=31.4 size=       0KiB time=00:00:01.65 bitrate=   0.2kbits/s speed=0.0403x elapsed=0:00:40.90    \nframe=  204 fps=4.9 q=32.6 size=       0KiB time=00:00:01.68 bitrate=   0.2kbits/s speed=0.0406x elapsed=0:00:41.41    \nframe=  207 fps=4.9 q=27.1 size=       0KiB time=00:00:01.70 bitrate=   0.2kbits/s speed=0.0407x elapsed=0:00:41.92    \nframe=  210 fps=4.9 q=31.1 size=       0KiB time=00:00:01.72 bitrate=   0.2kbits/s speed=0.0406x elapsed=0:00:42.44    \nframe=  212 fps=4.9 q=27.4 size=       0KiB time=00:00:01.75 bitrate=   0.2kbits/s speed=0.0407x elapsed=0:00:42.97    \nframe=  215 fps=4.9 q=30.6 size=       0KiB time=00:00:01.77 bitrate=   0.2kbits/s speed=0.0408x elapsed=0:00:43.49    \nframe=  218 fps=5.0 q=31.9 size=       0KiB time=00:00:01.80 bitrate=   0.2kbits/s speed=0.0409x elapsed=0:00:44.00    \nframe=  220 fps=4.9 q=30.4 size=       0KiB time=00:00:01.81 bitrate=   0.2kbits/s speed=0.0408x elapsed=0:00:44.52    \nframe=  222 fps=4.9 q=26.8 size=       0KiB time=00:00:01.83 bitrate=   0.2kbits/s speed=0.0407x elapsed=0:00:45.04    \nframe=  225 fps=4.9 q=30.4 size=       0KiB time=00:00:01.85 bitrate=   0.2kbits/s speed=0.0408x elapsed=0:00:45.55    \nframe=  229 fps=5.0 q=38.0 size=       0KiB time=00:00:01.89 bitrate=   0.2kbits/s speed=0.041x elapsed=0:00:46.09    \nframe=  232 fps=5.0 q=35.6 size=       0KiB time=00:00:01.91 bitrate=   0.2kbits/s speed=0.0411x elapsed=0:00:46.59    \nframe=  235 fps=5.0 q=39.0 size=       0KiB time=00:00:01.94 bitrate=   0.2kbits/s speed=0.0412x elapsed=0:00:47.11    \nframe=  237 fps=5.0 q=37.3 size=       0KiB time=00:00:01.95 bitrate=   0.2kbits/s speed=0.0411x elapsed=0:00:47.63    \nframe=  241 fps=5.0 q=40.0 size=       0KiB time=00:00:01.99 bitrate=   0.2kbits/s speed=0.0414x elapsed=0:00:48.14    \nframe=  244 fps=5.0 q=39.9 size=       0KiB time=00:00:02.01 bitrate=   0.2kbits/s speed=0.0414x elapsed=0:00:48.67    \nframe=  244 fps=5.0 q=39.9 size=       0KiB time=00:00:02.01 bitrate=   0.2kbits/s speed=0.041x elapsed=0:00:49.18    \nframe=  246 fps=4.9 q=39.9 size=       0KiB time=00:00:02.03 bitrate=   0.2kbits/s speed=0.0409x elapsed=0:00:49.71    \nframe=  248 fps=4.9 q=39.9 size=     256KiB time=00:00:02.05 bitrate=1023.2kbits/s speed=0.0408x elapsed=0:00:50.23    \nframe=  254 fps=5.0 q=37.8 size=     256KiB time=00:00:02.10 bitrate= 998.8kbits/s speed=0.0414x elapsed=0:00:50.73    \nframe=  257 fps=5.0 q=30.4 size=     256KiB time=00:00:02.12 bitrate= 987.1kbits/s speed=0.0415x elapsed=0:00:51.26    \nframe=  258 fps=5.0 q=36.8 size=     256KiB time=00:00:02.13 bitrate= 983.2kbits/s speed=0.0412x elapsed=0:00:51.80    \nframe=  261 fps=5.0 q=37.9 size=     256KiB time=00:00:02.15 bitrate= 971.8kbits/s speed=0.0413x elapsed=0:00:52.31    \nframe=  263 fps=5.0 q=36.7 size=     256KiB time=00:00:02.17 bitrate= 964.4kbits/s speed=0.0411x elapsed=0:00:52.86    \nframe=  265 fps=5.0 q=37.8 size=     256KiB time=00:00:02.19 bitrate= 957.0kbits/s speed=0.041x elapsed=0:00:53.39    \nframe=  265 fps=4.9 q=37.8 size=     256KiB time=00:00:02.19 bitrate= 957.0kbits/s speed=0.0406x elapsed=0:00:53.92    \nframe=  267 fps=4.9 q=29.5 size=     256KiB time=00:00:02.20 bitrate= 949.8kbits/s speed=0.0406x elapsed=0:00:54.43    \nframe=  268 fps=4.9 q=36.8 size=     256KiB time=00:00:02.21 bitrate= 946.2kbits/s speed=0.0403x elapsed=0:00:54.97    \nframe=  270 fps=4.9 q=37.9 size=     256KiB time=00:00:02.23 bitrate= 939.2kbits/s speed=0.0402x elapsed=0:00:55.48    \nframe=  272 fps=4.9 q=32.5 size=     256KiB time=00:00:02.25 bitrate= 932.2kbits/s speed=0.0402x elapsed=0:00:56.01    \nframe=  272 fps=4.8 q=32.5 size=     256KiB time=00:00:02.25 bitrate= 932.2kbits/s speed=0.0398x elapsed=0:00:56.52    \nframe=  273 fps=4.8 q=36.8 size=     256KiB time=00:00:02.25 bitrate= 928.8kbits/s speed=0.0396x elapsed=0:00:57.05    \nframe=  275 fps=4.8 q=37.8 size=     256KiB time=00:00:02.27 bitrate= 922.0kbits/s speed=0.0395x elapsed=0:00:57.59    \nframe=  277 fps=4.8 q=30.9 size=     256KiB time=00:00:02.29 bitrate= 915.3kbits/s speed=0.0394x elapsed=0:00:58.11    \nframe=  279 fps=4.8 q=37.9 size=     256KiB time=00:00:02.30 bitrate= 908.7kbits/s speed=0.0394x elapsed=0:00:58.63    \nframe=  281 fps=4.7 q=37.9 size=     256KiB time=00:00:02.32 bitrate= 902.2kbits/s speed=0.0393x elapsed=0:00:59.17    \nframe=  284 fps=4.8 q=37.9 size=     256KiB time=00:00:02.35 bitrate= 892.6kbits/s speed=0.0394x elapsed=0:00:59.71    \nframe=  285 fps=4.7 q=37.7 size=     256KiB time=00:00:02.35 bitrate= 889.4kbits/s speed=0.0392x elapsed=0:01:00.22    \nframe=  288 fps=4.7 q=36.8 size=     256KiB time=00:00:02.38 bitrate= 880.1kbits/s speed=0.0392x elapsed=0:01:00.74    \nframe=  289 fps=4.7 q=37.8 size=     256KiB time=00:00:02.39 bitrate= 877.0kbits/s speed=0.039x elapsed=0:01:01.26    \nframe=  293 fps=4.7 q=36.7 size=     256KiB time=00:00:02.42 bitrate= 865.0kbits/s speed=0.0393x elapsed=0:01:01.77    \nframe=  294 fps=4.7 q=37.8 size=     256KiB time=00:00:02.43 bitrate= 862.0kbits/s speed=0.0391x elapsed=0:01:02.28    \nframe=  295 fps=4.7 q=37.8 size=     256KiB time=00:00:02.44 bitrate= 859.0kbits/s speed=0.0389x elapsed=0:01:02.80    \nframe=  297 fps=4.7 q=31.7 size=     256KiB time=00:00:02.45 bitrate= 853.2kbits/s speed=0.0388x elapsed=0:01:03.35    \nframe=  299 fps=4.7 q=37.8 size=     256KiB time=00:00:02.47 bitrate= 847.5kbits/s speed=0.0387x elapsed=0:01:03.89    \nframe=  300 fps=4.7 q=37.8 size=     256KiB time=00:00:02.48 bitrate= 844.6kbits/s speed=0.0385x elapsed=0:01:04.42    \nframe=  303 fps=4.7 q=35.9 size=     256KiB time=00:00:02.50 bitrate= 836.2kbits/s speed=0.0386x elapsed=0:01:04.94    \nframe=  303 fps=4.6 q=35.9 size=     256KiB time=00:00:02.50 bitrate= 836.2kbits/s speed=0.0383x elapsed=0:01:05.46    \nframe=  303 fps=4.6 q=35.9 size=     256KiB time=00:00:02.50 bitrate= 836.2kbits/s speed=0.038x elapsed=0:01:05.98    \nframe=  304 fps=4.6 q=37.7 size=     256KiB time=00:00:02.51 bitrate= 833.4kbits/s speed=0.0378x elapsed=0:01:06.49    \nframe=  306 fps=4.6 q=37.8 size=     256KiB time=00:00:02.53 bitrate= 828.0kbits/s speed=0.0378x elapsed=0:01:07.02    \nframe=  306 fps=4.5 q=37.8 size=     256KiB time=00:00:02.53 bitrate= 828.0kbits/s speed=0.0375x elapsed=0:01:07.53    \nframe=  307 fps=4.5 q=30.1 size=     256KiB time=00:00:02.54 bitrate= 825.2kbits/s speed=0.0373x elapsed=0:01:08.05    \nframe=  308 fps=4.5 q=35.8 size=     256KiB time=00:00:02.55 bitrate= 822.6kbits/s speed=0.0372x elapsed=0:01:08.57    \nframe=  308 fps=4.5 q=35.8 size=     256KiB time=00:00:02.55 bitrate= 822.6kbits/s speed=0.0369x elapsed=0:01:09.08    \nframe=  309 fps=4.4 q=33.9 size=     256KiB time=00:00:02.55 bitrate= 819.9kbits/s speed=0.0368x elapsed=0:01:09.60    \nframe=  309 fps=4.4 q=33.9 size=     256KiB time=00:00:02.55 bitrate= 819.9kbits/s speed=0.0365x elapsed=0:01:10.13    \nframe=  310 fps=4.4 q=33.9 size=     256KiB time=00:00:02.56 bitrate= 817.2kbits/s speed=0.0363x elapsed=0:01:10.64    \nframe=  311 fps=4.4 q=33.9 size=     256KiB time=00:00:02.57 bitrate= 814.6kbits/s speed=0.0362x elapsed=0:01:11.16    \nframe=  312 fps=4.4 q=26.1 size=     256KiB time=00:00:02.58 bitrate= 811.9kbits/s speed=0.036x elapsed=0:01:11.67    \nframe=  312 fps=4.3 q=26.1 size=     256KiB time=00:00:02.58 bitrate= 811.9kbits/s speed=0.0358x elapsed=0:01:12.19    \nframe=  313 fps=4.3 q=32.7 size=     256KiB time=00:00:02.59 bitrate= 809.3kbits/s speed=0.0356x elapsed=0:01:12.70    \nframe=  314 fps=4.3 q=32.9 size=     256KiB time=00:00:02.60 bitrate= 806.7kbits/s speed=0.0355x elapsed=0:01:13.22    \nframe=  314 fps=4.3 q=32.9 size=     256KiB time=00:00:02.60 bitrate= 806.7kbits/s speed=0.0353x elapsed=0:01:13.73    \nframe=  315 fps=4.2 q=33.8 size=     256KiB time=00:00:02.60 bitrate= 804.2kbits/s speed=0.0351x elapsed=0:01:14.25    \nframe=  315 fps=4.2 q=33.8 size=     256KiB time=00:00:02.60 bitrate= 804.2kbits/s speed=0.0349x elapsed=0:01:14.77    \nframe=  316 fps=4.2 q=33.9 size=     256KiB time=00:00:02.61 bitrate= 801.6kbits/s speed=0.0348x elapsed=0:01:15.28    \nframe=  317 fps=4.2 q=26.1 size=     256KiB time=00:00:02.62 bitrate= 799.0kbits/s speed=0.0346x elapsed=0:01:15.79    \nframe=  317 fps=4.2 q=26.1 size=     256KiB time=00:00:02.62 bitrate= 799.0kbits/s speed=0.0344x elapsed=0:01:16.31    \nframe=  318 fps=4.1 q=34.8 size=     256KiB time=00:00:02.63 bitrate= 796.5kbits/s speed=0.0343x elapsed=0:01:16.83    \nframe=  319 fps=4.1 q=33.9 size=     256KiB time=00:00:02.64 bitrate= 794.0kbits/s speed=0.0342x elapsed=0:01:17.35    \nframe=  319 fps=4.1 q=33.9 size=     256KiB time=00:00:02.64 bitrate= 794.0kbits/s speed=0.0339x elapsed=0:01:17.85    \nframe=  320 fps=4.1 q=32.9 size=     256KiB time=00:00:02.65 bitrate= 791.5kbits/s speed=0.0338x elapsed=0:01:18.37    \nframe=  320 fps=4.1 q=32.9 size=     256KiB time=00:00:02.65 bitrate= 791.5kbits/s speed=0.0336x elapsed=0:01:18.89    \nframe=  321 fps=4.0 q=32.9 size=     256KiB time=00:00:02.65 bitrate= 789.0kbits/s speed=0.0335x elapsed=0:01:19.40    \nframe=  322 fps=4.0 q=26.1 size=     256KiB time=00:00:02.66 bitrate= 786.6kbits/s speed=0.0334x elapsed=0:01:19.92    \nframe=  323 fps=4.0 q=33.8 size=     256KiB time=00:00:02.67 bitrate= 784.1kbits/s speed=0.0333x elapsed=0:01:20.44    \nframe=  323 fps=4.0 q=33.8 size=     256KiB time=00:00:02.67 bitrate= 784.1kbits/s speed=0.033x elapsed=0:01:20.96    \nframe=  324 fps=4.0 q=33.8 size=     256KiB time=00:00:02.68 bitrate= 781.7kbits/s speed=0.0329x elapsed=0:01:21.47    \nframe=  325 fps=4.0 q=32.8 size=     256KiB time=00:00:02.69 bitrate= 779.3kbits/s speed=0.0328x elapsed=0:01:21.98    \nframe=  326 fps=4.0 q=32.7 size=     256KiB time=00:00:02.70 bitrate= 776.9kbits/s speed=0.0327x elapsed=0:01:22.50    \nframe=  326 fps=3.9 q=32.7 size=     256KiB time=00:00:02.70 bitrate= 776.9kbits/s speed=0.0325x elapsed=0:01:23.01    \nframe=  327 fps=3.9 q=26.2 size=     256KiB time=00:00:02.70 bitrate= 774.5kbits/s speed=0.0324x elapsed=0:01:23.53    \nframe=  328 fps=3.9 q=32.8 size=     256KiB time=00:00:02.71 bitrate= 772.1kbits/s speed=0.0323x elapsed=0:01:24.05    \nframe=  329 fps=3.9 q=32.8 size=     256KiB time=00:00:02.72 bitrate= 769.7kbits/s speed=0.0322x elapsed=0:01:24.56    \nframe=  330 fps=3.9 q=31.6 size=     256KiB time=00:00:02.73 bitrate= 767.4kbits/s speed=0.0321x elapsed=0:01:25.08    \nframe=  330 fps=3.9 q=31.6 size=     256KiB time=00:00:02.73 bitrate= 767.4kbits/s speed=0.0319x elapsed=0:01:25.59    \nframe=  330 fps=3.8 q=31.6 size=     256KiB time=00:00:02.73 bitrate= 767.4kbits/s speed=0.0317x elapsed=0:01:26.11    \nframe=  331 fps=3.8 q=31.8 size=     256KiB time=00:00:02.74 bitrate= 765.0kbits/s speed=0.0316x elapsed=0:01:26.62    \nframe=  332 fps=3.8 q=26.2 size=     256KiB time=00:00:02.75 bitrate= 762.7kbits/s speed=0.0316x elapsed=0:01:27.15    \nframe=  333 fps=3.8 q=32.7 size=     256KiB time=00:00:02.75 bitrate= 760.4kbits/s speed=0.0315x elapsed=0:01:27.65    \nframe=  334 fps=3.8 q=32.7 size=     256KiB time=00:00:02.76 bitrate= 758.1kbits/s speed=0.0314x elapsed=0:01:28.18    \nframe=  335 fps=3.8 q=31.7 size=     256KiB time=00:00:02.77 bitrate= 755.9kbits/s speed=0.0313x elapsed=0:01:28.68    \nframe=  335 fps=3.8 q=31.7 size=     256KiB time=00:00:02.77 bitrate= 755.9kbits/s speed=0.0311x elapsed=0:01:29.20    \nframe=  336 fps=3.7 q=31.8 size=     256KiB time=00:00:02.78 bitrate= 753.6kbits/s speed=0.031x elapsed=0:01:29.72    \nframe=  336 fps=3.7 q=31.8 size=     256KiB time=00:00:02.78 bitrate= 753.6kbits/s speed=0.0308x elapsed=0:01:30.23    \nframe=  338 fps=3.7 q=32.7 size=     256KiB time=00:00:02.80 bitrate= 749.1kbits/s speed=0.0309x elapsed=0:01:30.75    \nframe=  338 fps=3.7 q=32.7 size=     256KiB time=00:00:02.80 bitrate= 749.1kbits/s speed=0.0307x elapsed=0:01:31.27    \nframe=  339 fps=3.7 q=31.8 size=     256KiB time=00:00:02.80 bitrate= 746.9kbits/s speed=0.0306x elapsed=0:01:31.78    \nframe=  340 fps=3.7 q=31.8 size=     256KiB time=00:00:02.81 bitrate= 744.7kbits/s speed=0.0305x elapsed=0:01:32.30    \nframe=  341 fps=3.7 q=31.7 size=     256KiB time=00:00:02.82 bitrate= 742.5kbits/s speed=0.0304x elapsed=0:01:32.82    \nframe=  342 fps=3.7 q=25.9 size=     256KiB time=00:00:02.83 bitrate= 740.3kbits/s speed=0.0304x elapsed=0:01:33.33    \nframe=  342 fps=3.6 q=25.9 size=     256KiB time=00:00:02.83 bitrate= 740.3kbits/s speed=0.0302x elapsed=0:01:33.85    \nframe=  343 fps=3.6 q=31.8 size=     256KiB time=00:00:02.84 bitrate= 738.1kbits/s speed=0.0301x elapsed=0:01:34.36    \nframe=  343 fps=3.6 q=31.8 size=     256KiB time=00:00:02.84 bitrate= 738.1kbits/s speed=0.0299x elapsed=0:01:34.88    \nframe=  344 fps=3.6 q=31.7 size=     256KiB time=00:00:02.85 bitrate= 736.0kbits/s speed=0.0299x elapsed=0:01:35.39    \nframe=  345 fps=3.6 q=31.6 size=     256KiB time=00:00:02.85 bitrate= 733.8kbits/s speed=0.0298x elapsed=0:01:35.90    \nframe=  345 fps=3.6 q=31.6 size=     256KiB time=00:00:02.85 bitrate= 733.8kbits/s speed=0.0296x elapsed=0:01:36.42    \nframe=  347 fps=3.6 q=25.9 size=     256KiB time=00:00:02.87 bitrate= 729.6kbits/s speed=0.0297x elapsed=0:01:36.95    \nframe=  347 fps=3.6 q=25.9 size=     256KiB time=00:00:02.87 bitrate= 729.6kbits/s speed=0.0295x elapsed=0:01:37.46    \nframe=  348 fps=3.6 q=31.8 size=     256KiB time=00:00:02.88 bitrate= 727.5kbits/s speed=0.0294x elapsed=0:01:37.97    \nframe=  349 fps=3.5 q=31.7 size=     256KiB time=00:00:02.89 bitrate= 725.4kbits/s speed=0.0294x elapsed=0:01:38.49    \nframe=  350 fps=3.5 q=30.6 size=     256KiB time=00:00:02.90 bitrate= 723.3kbits/s speed=0.0293x elapsed=0:01:39.00    \nframe=  351 fps=3.5 q=30.9 size=     256KiB time=00:00:02.90 bitrate= 721.2kbits/s speed=0.0292x elapsed=0:01:39.52    \nframe=  352 fps=3.5 q=25.6 size=     256KiB time=00:00:02.91 bitrate= 719.1kbits/s speed=0.0292x elapsed=0:01:40.03    \nframe=  352 fps=3.5 q=25.6 size=     256KiB time=00:00:02.91 bitrate= 719.1kbits/s speed=0.029x elapsed=0:01:40.56    \nframe=  353 fps=3.5 q=31.7 size=     256KiB time=00:00:02.92 bitrate= 717.1kbits/s speed=0.0289x elapsed=0:01:41.06    \nframe=  354 fps=3.5 q=31.8 size=     256KiB time=00:00:02.93 bitrate= 715.1kbits/s speed=0.0289x elapsed=0:01:41.58    \nframe=  355 fps=3.5 q=30.9 size=     256KiB time=00:00:02.94 bitrate= 713.0kbits/s speed=0.0288x elapsed=0:01:42.10    \nframe=  356 fps=3.5 q=30.6 size=     256KiB time=00:00:02.95 bitrate= 711.0kbits/s speed=0.0287x elapsed=0:01:42.62    \nframe=  356 fps=3.5 q=30.6 size=     256KiB time=00:00:02.95 bitrate= 711.0kbits/s speed=0.0286x elapsed=0:01:43.14    \nframe=  357 fps=3.4 q=25.7 size=     256KiB time=00:00:02.95 bitrate= 709.0kbits/s speed=0.0285x elapsed=0:01:43.66    \nframe=  358 fps=3.4 q=31.9 size=     256KiB time=00:00:02.96 bitrate= 707.0kbits/s speed=0.0285x elapsed=0:01:44.17    \nframe=  358 fps=3.4 q=31.9 size=     256KiB time=00:00:02.96 bitrate= 707.0kbits/s speed=0.0283x elapsed=0:01:44.69    \nframe=  359 fps=3.4 q=31.7 size=     256KiB time=00:00:02.97 bitrate= 705.0kbits/s speed=0.0283x elapsed=0:01:45.20    \nframe=  360 fps=3.4 q=30.5 size=     256KiB time=00:00:02.98 bitrate= 703.1kbits/s speed=0.0282x elapsed=0:01:45.72    \nframe=  360 fps=3.4 q=30.5 size=     256KiB time=00:00:02.98 bitrate= 703.1kbits/s speed=0.0281x elapsed=0:01:46.24    \nframe=  361 fps=3.4 q=30.7 size=     256KiB time=00:00:02.99 bitrate= 701.1kbits/s speed=0.028x elapsed=0:01:46.75    \nframe=  361 fps=3.4 q=30.7 size=     256KiB time=00:00:02.99 bitrate= 701.1kbits/s speed=0.0279x elapsed=0:01:47.27    \nframe=  362 fps=3.4 q=26.2 size=     256KiB time=00:00:03.00 bitrate= 699.2kbits/s speed=0.0278x elapsed=0:01:47.78    \nframe=  363 fps=3.4 q=31.8 size=     256KiB time=00:00:03.00 bitrate= 697.2kbits/s speed=0.0278x elapsed=0:01:48.29    \nframe=  365 fps=3.4 q=30.5 size=     256KiB time=00:00:03.02 bitrate= 693.4kbits/s speed=0.0278x elapsed=0:01:48.82    \nframe=  366 fps=3.3 q=30.6 size=     256KiB time=00:00:03.03 bitrate= 691.5kbits/s speed=0.0277x elapsed=0:01:49.34    \nframe=  366 fps=3.3 q=30.6 size=     256KiB time=00:00:03.03 bitrate= 691.5kbits/s speed=0.0276x elapsed=0:01:49.85    \nframe=  367 fps=3.3 q=25.7 size=     256KiB time=00:00:03.04 bitrate= 689.6kbits/s speed=0.0276x elapsed=0:01:50.36    \nframe=  368 fps=3.3 q=31.7 size=     256KiB time=00:00:03.05 bitrate= 687.7kbits/s speed=0.0275x elapsed=0:01:50.88    \nframe=  369 fps=3.3 q=30.8 size=     256KiB time=00:00:03.05 bitrate= 685.8kbits/s speed=0.0275x elapsed=0:01:51.39    \nframe=  370 fps=3.3 q=30.7 size=     256KiB time=00:00:03.06 bitrate= 684.0kbits/s speed=0.0274x elapsed=0:01:51.91    \nframe=  371 fps=3.3 q=30.4 size=     256KiB time=00:00:03.07 bitrate= 682.1kbits/s speed=0.0273x elapsed=0:01:52.43    \nframe=  372 fps=3.3 q=25.9 size=     256KiB time=00:00:03.08 bitrate= 680.3kbits/s speed=0.0273x elapsed=0:01:52.94    \nframe=  373 fps=3.3 q=31.7 size=     256KiB time=00:00:03.09 bitrate= 678.4kbits/s speed=0.0273x elapsed=0:01:53.45    \nframe=  375 fps=3.3 q=30.8 size=     256KiB time=00:00:03.10 bitrate= 674.8kbits/s speed=0.0273x elapsed=0:01:53.97    \nframe=  376 fps=3.3 q=30.6 size=     256KiB time=00:00:03.11 bitrate= 673.0kbits/s speed=0.0272x elapsed=0:01:54.48    \nframe=  377 fps=3.3 q=26.0 size=     256KiB time=00:00:03.12 bitrate= 671.2kbits/s speed=0.0272x elapsed=0:01:55.00    \nframe=  379 fps=3.3 q=30.9 size=     256KiB time=00:00:03.14 bitrate= 667.6kbits/s speed=0.0272x elapsed=0:01:55.52    \nframe=  381 fps=3.3 q=30.7 size=     256KiB time=00:00:03.15 bitrate= 664.1kbits/s speed=0.0272x elapsed=0:01:56.03    \nframe=  382 fps=3.3 q=25.5 size=     256KiB time=00:00:03.16 bitrate= 662.4kbits/s speed=0.0272x elapsed=0:01:56.55    \nframe=  383 fps=3.3 q=30.9 size=     256KiB time=00:00:03.17 bitrate= 660.6kbits/s speed=0.0271x elapsed=0:01:57.07    \nframe=  384 fps=3.3 q=30.8 size=     256KiB time=00:00:03.18 bitrate= 658.9kbits/s speed=0.0271x elapsed=0:01:57.59    \nframe=  386 fps=3.3 q=30.5 size=     256KiB time=00:00:03.20 bitrate= 655.5kbits/s speed=0.0271x elapsed=0:01:58.11    \nframe=  387 fps=3.3 q=25.4 size=     256KiB time=00:00:03.20 bitrate= 653.8kbits/s speed=0.027x elapsed=0:01:58.64    \nframe=  388 fps=3.3 q=31.8 size=     256KiB time=00:00:03.21 bitrate= 652.1kbits/s speed=0.027x elapsed=0:01:59.16    \nframe=  390 fps=3.3 q=30.8 size=     256KiB time=00:00:03.23 bitrate= 648.7kbits/s speed=0.027x elapsed=0:01:59.68    \nframe=  393 fps=3.3 q=31.7 size=     256KiB time=00:00:03.25 bitrate= 643.7kbits/s speed=0.0271x elapsed=0:02:00.20    \nframe=  396 fps=3.3 q=30.4 size=     256KiB time=00:00:03.28 bitrate= 638.8kbits/s speed=0.0272x elapsed=0:02:00.71    \nframe=  397 fps=3.3 q=25.3 size=     256KiB time=00:00:03.29 bitrate= 637.2kbits/s speed=0.0272x elapsed=0:02:01.23    \nframe=  399 fps=3.3 q=30.8 size=     256KiB time=00:00:03.30 bitrate= 634.0kbits/s speed=0.0272x elapsed=0:02:01.77    \nframe=  400 fps=3.3 q=30.9 size=     256KiB time=00:00:03.31 bitrate= 632.4kbits/s speed=0.0271x elapsed=0:02:02.28    \nframe=  401 fps=3.3 q=30.5 size=     256KiB time=00:00:03.32 bitrate= 630.8kbits/s speed=0.0271x elapsed=0:02:02.80    \nframe=  402 fps=3.3 q=25.1 size=     256KiB time=00:00:03.33 bitrate= 629.3kbits/s speed=0.027x elapsed=0:02:03.31    \nframe=  405 fps=3.3 q=30.9 size=     256KiB time=00:00:03.35 bitrate= 624.6kbits/s speed=0.0271x elapsed=0:02:03.83    \nframe=  405 fps=3.3 q=30.9 size=     256KiB time=00:00:03.35 bitrate= 624.6kbits/s speed=0.027x elapsed=0:02:04.35    \nframe=  407 fps=3.3 q=25.0 size=     256KiB time=00:00:03.37 bitrate= 621.5kbits/s speed=0.027x elapsed=0:02:04.86    \nframe=  407 fps=3.2 q=25.0 size=     256KiB time=00:00:03.37 bitrate= 621.5kbits/s speed=0.0269x elapsed=0:02:05.38    \nframe=  409 fps=3.2 q=30.9 size=     256KiB time=00:00:03.39 bitrate= 618.4kbits/s speed=0.0269x elapsed=0:02:05.89    \nframe=  412 fps=3.3 q=25.0 size=     256KiB time=00:00:03.41 bitrate= 613.9kbits/s speed=0.027x elapsed=0:02:06.41    \nframe=  414 fps=3.3 q=30.9 size=     256KiB time=00:00:03.43 bitrate= 610.9kbits/s speed=0.027x elapsed=0:02:06.94    \nframe=  415 fps=3.3 q=30.9 size=     256KiB time=00:00:03.44 bitrate= 609.4kbits/s speed=0.027x elapsed=0:02:07.45    \nframe=  417 fps=3.3 q=25.1 size=     256KiB time=00:00:03.45 bitrate= 606.5kbits/s speed=0.027x elapsed=0:02:07.97    \nframe=  420 fps=3.3 q=30.8 size=     256KiB time=00:00:03.48 bitrate= 602.2kbits/s speed=0.0271x elapsed=0:02:08.48    \nframe=  423 fps=3.3 q=31.7 size=     256KiB time=00:00:03.50 bitrate= 597.9kbits/s speed=0.0272x elapsed=0:02:09.00    \nframe=  426 fps=3.3 q=30.8 size=     256KiB time=00:00:03.53 bitrate= 593.6kbits/s speed=0.0273x elapsed=0:02:09.52    \nframe=  428 fps=3.3 q=31.7 size=     256KiB time=00:00:03.55 bitrate= 590.8kbits/s speed=0.0273x elapsed=0:02:10.04    \nframe=  431 fps=3.3 q=30.9 size=     256KiB time=00:00:03.57 bitrate= 586.7kbits/s speed=0.0274x elapsed=0:02:10.56    \nframe=  434 fps=3.3 q=30.9 size=     256KiB time=00:00:03.60 bitrate= 582.6kbits/s speed=0.0275x elapsed=0:02:11.08    \nframe=  437 fps=3.3 q=24.9 size=     256KiB time=00:00:03.62 bitrate= 578.6kbits/s speed=0.0275x elapsed=0:02:11.60    \nframe=  439 fps=3.3 q=30.9 size=     256KiB time=00:00:03.64 bitrate= 576.0kbits/s speed=0.0276x elapsed=0:02:12.11    \nframe=  442 fps=3.3 q=25.0 size=     256KiB time=00:00:03.66 bitrate= 572.0kbits/s speed=0.0276x elapsed=0:02:12.63    \nframe=  446 fps=3.3 q=30.8 size=     256KiB time=00:00:03.70 bitrate= 566.9kbits/s speed=0.0278x elapsed=0:02:13.16    \nframe=  449 fps=3.4 q=30.8 size=     256KiB time=00:00:03.72 bitrate= 563.1kbits/s speed=0.0279x elapsed=0:02:13.68    \nframe=  451 fps=3.4 q=30.7 size=     256KiB time=00:00:03.74 bitrate= 560.6kbits/s speed=0.0279x elapsed=0:02:14.18    \nframe=  453 fps=3.4 q=31.7 size=     256KiB time=00:00:03.75 bitrate= 558.1kbits/s speed=0.0279x elapsed=0:02:14.71    \nframe=  457 fps=3.4 q=24.9 size=     256KiB time=00:00:03.79 bitrate= 553.2kbits/s speed=0.028x elapsed=0:02:15.23    \nframe=  459 fps=3.4 q=30.8 size=     256KiB time=00:00:03.80 bitrate= 550.8kbits/s speed=0.0281x elapsed=0:02:15.75    \nframe=  462 fps=3.4 q=24.8 size=     256KiB time=00:00:03.83 bitrate= 547.2kbits/s speed=0.0281x elapsed=0:02:16.27    \nframe=  464 fps=3.4 q=30.7 size=     512KiB time=00:00:03.85 bitrate=1089.5kbits/s speed=0.0281x elapsed=0:02:16.78    \nframe=  467 fps=3.4 q=24.7 size=     512KiB time=00:00:03.87 bitrate=1082.5kbits/s speed=0.0282x elapsed=0:02:17.30    \nframe=  469 fps=3.4 q=30.7 size=     512KiB time=00:00:03.89 bitrate=1077.9kbits/s speed=0.0282x elapsed=0:02:17.81    \nframe=  473 fps=3.4 q=31.7 size=     512KiB time=00:00:03.92 bitrate=1068.7kbits/s speed=0.0284x elapsed=0:02:18.33    \nframe=  475 fps=3.4 q=30.7 size=     512KiB time=00:00:03.94 bitrate=1064.2kbits/s speed=0.0284x elapsed=0:02:18.85    \nframe=  478 fps=3.4 q=37.8 size=     512KiB time=00:00:03.96 bitrate=1057.5kbits/s speed=0.0285x elapsed=0:02:19.36    \nframe=  482 fps=3.4 q=34.6 size=     512KiB time=00:00:04.00 bitrate=1048.7kbits/s speed=0.0286x elapsed=0:02:19.88    \nframe=  484 fps=3.4 q=38.7 size=     512KiB time=00:00:04.01 bitrate=1044.3kbits/s speed=0.0286x elapsed=0:02:20.40    \nframe=  486 fps=3.4 q=37.9 size=     512KiB time=00:00:04.03 bitrate=1040.0kbits/s speed=0.0286x elapsed=0:02:20.92    \nframe=  486 fps=3.4 q=37.9 size=     512KiB time=00:00:04.03 bitrate=1040.0kbits/s speed=0.0285x elapsed=0:02:21.45    \nframe=  487 fps=3.4 q=35.7 size=     512KiB time=00:00:04.04 bitrate=1037.9kbits/s speed=0.0285x elapsed=0:02:21.95    \nframe=  488 fps=3.4 q=38.8 size=     512KiB time=00:00:04.05 bitrate=1035.7kbits/s speed=0.0284x elapsed=0:02:22.47    \nframe=  490 fps=3.4 q=38.9 size=     512KiB time=00:00:04.06 bitrate=1031.5kbits/s speed=0.0284x elapsed=0:02:22.99    \nframe=  491 fps=3.4 q=38.8 size=     512KiB time=00:00:04.07 bitrate=1029.4kbits/s speed=0.0284x elapsed=0:02:23.50    \nframe=  492 fps=3.4 q=34.3 size=     512KiB time=00:00:04.08 bitrate=1027.3kbits/s speed=0.0284x elapsed=0:02:24.02    \nframe=  494 fps=3.4 q=38.8 size=     512KiB time=00:00:04.10 bitrate=1023.1kbits/s speed=0.0284x elapsed=0:02:24.53    \nframe=  494 fps=3.4 q=38.8 size=     512KiB time=00:00:04.10 bitrate=1023.1kbits/s speed=0.0283x elapsed=0:02:25.07    \nframe=  495 fps=3.4 q=38.9 size=     512KiB time=00:00:04.10 bitrate=1021.0kbits/s speed=0.0282x elapsed=0:02:25.58    \nframe=  495 fps=3.4 q=38.9 size=     512KiB time=00:00:04.10 bitrate=1021.0kbits/s speed=0.0281x elapsed=0:02:26.10    \nframe=  496 fps=3.4 q=38.7 size=     512KiB time=00:00:04.11 bitrate=1018.9kbits/s speed=0.0281x elapsed=0:02:26.62    \nframe=  496 fps=3.4 q=38.7 size=     512KiB time=00:00:04.11 bitrate=1018.9kbits/s speed=0.028x elapsed=0:02:27.14    \nframe=  497 fps=3.4 q=27.7 size=     512KiB time=00:00:04.12 bitrate=1016.9kbits/s speed=0.0279x elapsed=0:02:27.66    \nframe=  498 fps=3.4 q=38.8 size=     512KiB time=00:00:04.13 bitrate=1014.8kbits/s speed=0.0279x elapsed=0:02:28.18    \nframe=  500 fps=3.4 q=39.9 size=     512KiB time=00:00:04.15 bitrate=1010.8kbits/s speed=0.0279x elapsed=0:02:28.70    \nframe=  501 fps=3.4 q=39.9 size=     512KiB time=00:00:04.15 bitrate=1008.7kbits/s speed=0.0279x elapsed=0:02:29.23    \nframe=  502 fps=3.4 q=28.8 size=     512KiB time=00:00:04.16 bitrate=1006.7kbits/s speed=0.0278x elapsed=0:02:29.73    \nframe=  503 fps=3.3 q=36.8 size=     512KiB time=00:00:04.17 bitrate=1004.7kbits/s speed=0.0278x elapsed=0:02:30.25    \nframe=  505 fps=3.3 q=37.8 size=     512KiB time=00:00:04.19 bitrate=1000.7kbits/s speed=0.0278x elapsed=0:02:30.79    \nframe=  507 fps=3.4 q=28.4 size=     512KiB time=00:00:04.20 bitrate= 996.8kbits/s speed=0.0278x elapsed=0:02:31.30    \nframe=  507 fps=3.3 q=28.4 size=     512KiB time=00:00:04.20 bitrate= 996.8kbits/s speed=0.0277x elapsed=0:02:31.82    \nframe=  510 fps=3.3 q=37.9 size=     512KiB time=00:00:04.23 bitrate= 990.9kbits/s speed=0.0278x elapsed=0:02:32.32    \nframe=  510 fps=3.3 q=37.9 size=     512KiB time=00:00:04.23 bitrate= 990.9kbits/s speed=0.0277x elapsed=0:02:32.84    \nframe=  511 fps=3.3 q=36.8 size=     512KiB time=00:00:04.24 bitrate= 988.9kbits/s speed=0.0277x elapsed=0:02:33.37    \nframe=  513 fps=3.3 q=35.9 size=     512KiB time=00:00:04.25 bitrate= 985.0kbits/s speed=0.0277x elapsed=0:02:33.89    \nframe=  514 fps=3.3 q=36.9 size=     512KiB time=00:00:04.26 bitrate= 983.1kbits/s speed=0.0276x elapsed=0:02:34.42    \nframe=  515 fps=3.3 q=36.9 size=     512KiB time=00:00:04.27 bitrate= 981.2kbits/s speed=0.0276x elapsed=0:02:34.94    \nframe=  516 fps=3.3 q=36.8 size=     512KiB time=00:00:04.28 bitrate= 979.3kbits/s speed=0.0276x elapsed=0:02:35.46    \nframe=  516 fps=3.3 q=36.8 size=     512KiB time=00:00:04.28 bitrate= 979.3kbits/s speed=0.0275x elapsed=0:02:35.98    \nframe=  518 fps=3.3 q=35.9 size=     512KiB time=00:00:04.30 bitrate= 975.5kbits/s speed=0.0275x elapsed=0:02:36.51    \nframe=  518 fps=3.3 q=35.9 size=     512KiB time=00:00:04.30 bitrate= 975.5kbits/s speed=0.0274x elapsed=0:02:37.01    \nframe=  520 fps=3.3 q=36.8 size=     512KiB time=00:00:04.31 bitrate= 971.7kbits/s speed=0.0274x elapsed=0:02:37.54    \nframe=  520 fps=3.3 q=36.8 size=     512KiB time=00:00:04.31 bitrate= 971.7kbits/s speed=0.0273x elapsed=0:02:38.05    \nframe=  521 fps=3.3 q=36.8 size=     512KiB time=00:00:04.32 bitrate= 969.9kbits/s speed=0.0273x elapsed=0:02:38.57    \nframe=  523 fps=3.3 q=35.7 size=     512KiB time=00:00:04.34 bitrate= 966.1kbits/s speed=0.0273x elapsed=0:02:39.09    \nframe=  524 fps=3.3 q=35.9 size=     512KiB time=00:00:04.35 bitrate= 964.3kbits/s speed=0.0273x elapsed=0:02:39.62    \nframe=  526 fps=3.3 q=36.9 size=     512KiB time=00:00:04.36 bitrate= 960.6kbits/s speed=0.0273x elapsed=0:02:40.14    \nframe=  526 fps=3.3 q=36.9 size=     512KiB time=00:00:04.36 bitrate= 960.6kbits/s speed=0.0272x elapsed=0:02:40.66    \nframe=  527 fps=3.3 q=28.1 size=     512KiB time=00:00:04.37 bitrate= 958.8kbits/s speed=0.0271x elapsed=0:02:41.18    \nframe=  528 fps=3.3 q=34.9 size=     512KiB time=00:00:04.38 bitrate= 957.0kbits/s speed=0.0271x elapsed=0:02:41.72    \nframe=  531 fps=3.3 q=35.9 size=     512KiB time=00:00:04.40 bitrate= 951.5kbits/s speed=0.0272x elapsed=0:02:42.24    \nframe=  531 fps=3.3 q=35.9 size=     512KiB time=00:00:04.40 bitrate= 951.5kbits/s speed=0.0271x elapsed=0:02:42.77    \nframe=  532 fps=3.3 q=27.9 size=     512KiB time=00:00:04.41 bitrate= 949.7kbits/s speed=0.027x elapsed=0:02:43.31    \nframe=  533 fps=3.3 q=34.9 size=     512KiB time=00:00:04.42 bitrate= 947.9kbits/s speed=0.027x elapsed=0:02:43.83    \nframe=  535 fps=3.3 q=35.9 size=     512KiB time=00:00:04.44 bitrate= 944.4kbits/s speed=0.027x elapsed=0:02:44.35    \nframe=  536 fps=3.3 q=35.9 size=     512KiB time=00:00:04.45 bitrate= 942.6kbits/s speed=0.027x elapsed=0:02:44.89    \nframe=  537 fps=3.2 q=28.3 size=     512KiB time=00:00:04.45 bitrate= 940.9kbits/s speed=0.027x elapsed=0:02:45.41    \nframe=  537 fps=3.2 q=28.3 size=     512KiB time=00:00:04.45 bitrate= 940.9kbits/s speed=0.0269x elapsed=0:02:45.95    \nframe=  538 fps=3.2 q=34.8 size=     512KiB time=00:00:04.46 bitrate= 939.1kbits/s speed=0.0268x elapsed=0:02:46.47    \nframe=  539 fps=3.2 q=35.8 size=     512KiB time=00:00:04.47 bitrate= 937.4kbits/s speed=0.0268x elapsed=0:02:46.99    \nframe=  541 fps=3.2 q=35.8 size=     512KiB time=00:00:04.49 bitrate= 933.9kbits/s speed=0.0268x elapsed=0:02:47.51    \nframe=  543 fps=3.2 q=34.8 size=     512KiB time=00:00:04.50 bitrate= 930.4kbits/s speed=0.0268x elapsed=0:02:48.03    \nframe=  545 fps=3.2 q=35.8 size=     512KiB time=00:00:04.51 bitrate= 928.7kbits/s speed=0.0268x elapsed=0:02:48.55    \nframe=  546 fps=3.2 q=35.9 size=     512KiB time=00:00:04.53 bitrate= 925.3kbits/s speed=0.0268x elapsed=0:02:49.07    \nframe=  546 fps=3.2 q=35.9 size=     512KiB time=00:00:04.53 bitrate= 925.3kbits/s speed=0.0267x elapsed=0:02:49.60    \nframe=  547 fps=3.2 q=28.7 size=     512KiB time=00:00:04.54 bitrate= 923.6kbits/s speed=0.0267x elapsed=0:02:50.12    \nframe=  548 fps=3.2 q=34.9 size=     512KiB time=00:00:04.55 bitrate= 921.9kbits/s speed=0.0267x elapsed=0:02:50.63    \nframe=  549 fps=3.2 q=35.9 size=     512KiB time=00:00:04.55 bitrate= 920.2kbits/s speed=0.0266x elapsed=0:02:51.15    \nframe=  551 fps=3.2 q=35.9 size=     512KiB time=00:00:04.57 bitrate= 916.9kbits/s speed=0.0266x elapsed=0:02:51.67    \nframe=  552 fps=3.2 q=28.5 size=     512KiB time=00:00:04.58 bitrate= 915.2kbits/s speed=0.0266x elapsed=0:02:52.18    \nframe=  553 fps=3.2 q=33.8 size=     512KiB time=00:00:04.59 bitrate= 913.5kbits/s speed=0.0266x elapsed=0:02:52.71    \nframe=  554 fps=3.2 q=32.9 size=     512KiB time=00:00:04.60 bitrate= 911.9kbits/s speed=0.0266x elapsed=0:02:53.22    \nframe=  554 fps=3.2 q=32.9 size=     512KiB time=00:00:04.60 bitrate= 911.9kbits/s speed=0.0265x elapsed=0:02:53.74    \nframe=  555 fps=3.2 q=32.8 size=     512KiB time=00:00:04.60 bitrate= 910.2kbits/s speed=0.0264x elapsed=0:02:54.26    \nframe=  556 fps=3.2 q=32.8 size=     512KiB time=00:00:04.61 bitrate= 908.6kbits/s speed=0.0264x elapsed=0:02:54.78    \nframe=  557 fps=3.2 q=26.3 size=     512KiB time=00:00:04.62 bitrate= 907.0kbits/s speed=0.0264x elapsed=0:02:55.32    \nframe=  558 fps=3.2 q=33.8 size=     512KiB time=00:00:04.63 bitrate= 905.3kbits/s speed=0.0264x elapsed=0:02:55.83    \nframe=  559 fps=3.2 q=32.8 size=     512KiB time=00:00:04.64 bitrate= 903.7kbits/s speed=0.0263x elapsed=0:02:56.35    \nframe=  561 fps=3.2 q=32.9 size=     512KiB time=00:00:04.65 bitrate= 900.5kbits/s speed=0.0263x elapsed=0:02:56.86    \nframe=  561 fps=3.2 q=32.9 size=     512KiB time=00:00:04.65 bitrate= 900.5kbits/s speed=0.0263x elapsed=0:02:57.38    \nframe=  562 fps=3.2 q=25.6 size=     512KiB time=00:00:04.66 bitrate= 898.9kbits/s speed=0.0262x elapsed=0:02:57.91    \nframe=  564 fps=3.2 q=34.9 size=     512KiB time=00:00:04.68 bitrate= 895.7kbits/s speed=0.0262x elapsed=0:02:58.43    \nframe=  566 fps=3.2 q=33.9 size=     512KiB time=00:00:04.70 bitrate= 892.5kbits/s speed=0.0263x elapsed=0:02:58.96    \nframe=  566 fps=3.2 q=33.9 size=     512KiB time=00:00:04.70 bitrate= 892.5kbits/s speed=0.0262x elapsed=0:02:59.48    \nframe=  567 fps=3.1 q=27.2 size=     512KiB time=00:00:04.70 bitrate= 890.9kbits/s speed=0.0262x elapsed=0:03:00.00    \nframe=  568 fps=3.1 q=35.0 size=     512KiB time=00:00:04.71 bitrate= 889.3kbits/s speed=0.0261x elapsed=0:03:00.52    \nframe=  570 fps=3.1 q=33.9 size=     512KiB time=00:00:04.73 bitrate= 886.2kbits/s speed=0.0261x elapsed=0:03:01.04    \nframe=  570 fps=3.1 q=33.9 size=     512KiB time=00:00:04.73 bitrate= 886.2kbits/s speed=0.0261x elapsed=0:03:01.57    \nframe=  571 fps=3.1 q=33.9 size=     512KiB time=00:00:04.74 bitrate= 884.6kbits/s speed=0.026x elapsed=0:03:02.10    \nframe=  571 fps=3.1 q=33.9 size=     512KiB time=00:00:04.74 bitrate= 884.6kbits/s speed=0.026x elapsed=0:03:02.63    \nframe=  573 fps=3.1 q=34.9 size=     512KiB time=00:00:04.75 bitrate= 881.5kbits/s speed=0.026x elapsed=0:03:03.18    \nframe=  574 fps=3.1 q=33.9 size=     512KiB time=00:00:04.76 bitrate= 880.0kbits/s speed=0.0259x elapsed=0:03:03.71    \nframe=  576 fps=3.1 q=33.0 size=     512KiB time=00:00:04.78 bitrate= 876.9kbits/s speed=0.026x elapsed=0:03:04.24    \nframe=  577 fps=3.1 q=25.7 size=     512KiB time=00:00:04.79 bitrate= 875.4kbits/s speed=0.0259x elapsed=0:03:04.75    \nframe=  579 fps=3.1 q=33.9 size=     512KiB time=00:00:04.80 bitrate= 872.4kbits/s speed=0.026x elapsed=0:03:05.27    \nframe=  579 fps=3.1 q=33.9 size=     512KiB time=00:00:04.80 bitrate= 872.4kbits/s speed=0.0259x elapsed=0:03:05.78    \nframe=  581 fps=3.1 q=25.5 size=     512KiB time=00:00:04.82 bitrate= 869.4kbits/s speed=0.0259x elapsed=0:03:06.30    \nframe=  582 fps=3.1 q=33.5 size=     512KiB time=00:00:04.83 bitrate= 867.9kbits/s speed=0.0259x elapsed=0:03:06.82    \nframe=  583 fps=3.1 q=32.9 size=     512KiB time=00:00:04.84 bitrate= 866.4kbits/s speed=0.0258x elapsed=0:03:07.35    \nframe=  584 fps=3.1 q=32.8 size=     512KiB time=00:00:04.85 bitrate= 864.9kbits/s speed=0.0258x elapsed=0:03:07.88    \nframe=  585 fps=3.1 q=31.9 size=     512KiB time=00:00:04.85 bitrate= 863.4kbits/s speed=0.0258x elapsed=0:03:08.40    \nframe=  586 fps=3.1 q=26.1 size=     512KiB time=00:00:04.86 bitrate= 861.9kbits/s speed=0.0258x elapsed=0:03:08.91    \nframe=  587 fps=3.1 q=30.2 size=     512KiB time=00:00:04.87 bitrate= 860.4kbits/s speed=0.0257x elapsed=0:03:09.43    \nframe=  589 fps=3.1 q=30.9 size=     512KiB time=00:00:04.89 bitrate= 857.5kbits/s speed=0.0258x elapsed=0:03:09.95    \nframe=  592 fps=3.1 q=29.4 size=     512KiB time=00:00:04.91 bitrate= 853.2kbits/s speed=0.0258x elapsed=0:03:10.47    \nframe=  593 fps=3.1 q=30.9 size=     512KiB time=00:00:04.92 bitrate= 851.7kbits/s speed=0.0258x elapsed=0:03:11.00    \nframe=  594 fps=3.1 q=29.7 size=     512KiB time=00:00:04.93 bitrate= 850.3kbits/s speed=0.0258x elapsed=0:03:11.52    \nframe=  595 fps=3.1 q=30.7 size=     512KiB time=00:00:04.94 bitrate= 848.8kbits/s speed=0.0257x elapsed=0:03:12.03    \nframe=  596 fps=3.1 q=31.4 size=     512KiB time=00:00:04.95 bitrate= 847.4kbits/s speed=0.0257x elapsed=0:03:12.55    \nframe=  596 fps=3.1 q=31.4 size=     512KiB time=00:00:04.95 bitrate= 847.4kbits/s speed=0.0256x elapsed=0:03:13.06    \nframe=  599 fps=3.1 q=29.5 size=     512KiB time=00:00:04.97 bitrate= 843.1kbits/s speed=0.0257x elapsed=0:03:13.60    \n[mp4 @ 0000018e36c29bc0] Starting second pass: moving the moov atom to the beginning of the file\n[out#0/mp4 @ 0000018e36c29ac0] video:729KiB audio:0KiB subtitle:0KiB other streams:0KiB global headers:2KiB muxing overhead: 1.369593%\nframe=  600 fps=3.1 q=30.3 Lsize=     739KiB time=00:00:04.98 bitrate=1215.2kbits/s speed=0.0257x elapsed=0:03:13.66    \nx265 [info]: frame I:      3, Avg QP:35.14  kb/s: 43153.60\nx265 [info]: frame P:    118, Avg QP:29.69  kb/s: 3747.03 \nx265 [info]: frame B:    479, Avg QP:35.44  kb/s: 298.40  \nx265 [info]: Weighted P-Frames: Y:0.0% UV:0.0%\n\nencoded 600 frames in 193.58s (3.10 fps), 1190.91 kb/s, Avg QP:34.31\n",
  "seconds": 193.88983130455017,
  "probe_out": {}
}